<?xml version="1.0" encoding="UTF-8"?>
<svg id="_Слой_2" data-name="Слой 2" xmlns="http://www.w3.org/2000/svg" viewBox="0 0 145.64 100.28">
  <defs>
    <style>
      .cls-1 {
        opacity: .81;
      }

      .cls-2 {
        letter-spacing: -.02em;
      }

      .cls-3 {
        fill: #1d65af;
      }

      .cls-4 {
        fill: #044c87;
        font-family: Montserrat-Medium, Montserrat;
        font-size: 11.17px;
        font-variation-settings: 'wght' 500;
      }

      .cls-5 {
        letter-spacing: 0em;
      }

      .cls-6 {
        letter-spacing: -.01em;
      }

      .cls-7 {
        fill: #688fca;
      }

      .cls-8 {
        letter-spacing: -.01em;
      }

      .cls-9 {
        fill: #4a80c1;
      }

      .cls-10 {
        letter-spacing: 0em;
      }

      .cls-11 {
        fill: #273069;
      }

      .cls-12 {
        opacity: .71;
      }
    </style>
  </defs>
  <g id="_Слой_1-2" data-name="Слой 1">
    <g>
      <g>
        <g>
          <path class="cls-3" d="M127.88,.13c-.16,.07-.41,.26-.54,.43-.14,.17-.4,.33-.58,.38-.34,.08-1.02,.77-1.02,1.05,0,.08-.03,.15-.09,.15-.05,0-.15,.26-.23,.59-.17,.75-.01,.87,1.12,.8h.28s-.28,.2-.28,.2c-.32,.25-.52,.28-.64,.1-.03-.07-.2-.1-.38-.07-.18,.03-.38-.01-.49-.11-.18-.16-.24-.16-.63,.02-.24,.11-.56,.32-.72,.46s-.43,.31-.6,.36c-.18,.06-.51,.26-.74,.47-.24,.2-.71,.61-1.05,.92s-.91,.69-1.25,.87c-.63,.31-2.5,2.03-2.5,2.29,0,.07-.15,.41-.34,.76-.18,.35-.34,.74-.34,.85s-.13,.27-.28,.34-.28,.23-.28,.34-.13,.32-.28,.46c-.2,.18-.28,.36-.28,.65,0,.34,.03,.4,.27,.4,.15,0,.3,.07,.33,.16s.17,.14,.35,.1c.46-.09,1.32,.31,1.32,.6,0,.16-.09,.27-.25,.31-.15,.03-.5,.15-.79,.26-.46,.17-.56,.18-.72,.06-.17-.14-.17-.18-.01-.35,.15-.17,.14-.22-.16-.5l-.32-.31-.31,.35c-.3,.36-.39,.73-.19,.84,.06,.03,.14,.31,.18,.59,.07,.49,.05,.55-.27,.83-.18,.16-.35,.42-.38,.58-.02,.18-.11,.3-.26,.32-.33,.06-.51,.35-.51,.82,0,.27-.08,.49-.23,.63-.13,.11-.23,.32-.23,.44,0,.23-.17,.39-.8,.72-.26,.14-.32,.11-.76-.33l-.48-.47-.76,.07c-.72,.06-.77,.08-1.2,.55-.77,.88-1.13,1.43-1.13,1.81,0,.26-.13,.49-.49,.88-.49,.51-.5,.51-.89,.38-.34-.13-.46-.11-.8,.07-.2,.11-.44,.19-.51,.18s-.22,.08-.33,.2c-.2,.23-.51,.31-.51,.14,0-.05,.08-.17,.17-.3,.15-.19,.14-.24-.13-.44l-.28-.23-.65,.28c-.73,.31-.98,.65-.98,1.38-.01,.4-.03,.43-.3,.38-.17-.02-.38,.02-.51,.14-.18,.15-.17,.13,.03-.1,.55-.63,.25-.77-.79-.36-.59,.23-.85,.4-.97,.63-.18,.36-.48,.55-.88,.55-.15,0-.36,.1-.49,.24-.18,.2-.19,.25-.05,.34q.52,.31,.25,.59c-.32,.34-.34,.93-.03,1.1,.14,.07,.25,.07,.28,.01,.07-.11,.87,.54,.87,.69,0,.05-.11,.09-.26,.09-.24,0-.88,.52-.88,.71,0,.05,.09,.1,.2,.13,.16,.05,.16,.06-.03,.07-.13,.01-.42,.07-.65,.14-.44,.11-.77,.55-.77,.99,0,.32-.71,.44-1.05,.19-.15-.09-.4-.17-.57-.17-.27,0-.32,.05-.32,.32,0,.17,.06,.38,.14,.46,.13,.13,.55,1.31,.55,1.56,0,.06-.24,.13-.55,.14-.44,.02-.6-.03-.96-.32-.23-.18-.5-.33-.59-.33s-.18-.11-.2-.26c-.02-.2-.1-.25-.38-.23q-.34,.02-.09-.17c.4-.32,.23-1.17-.22-1.02-.22,.08-.69-.55-.6-.81,.07-.22-.16-.33-.83-.41-.15-.02-.33-.09-.42-.17-.11-.09-.2-.08-.39,.08-.14,.1-.24,.27-.24,.35,0,.09-.07,.14-.14,.1-.08-.02-.24,0-.35,.06-.16,.08-.27,.06-.42-.08-.11-.1-.28-.17-.36-.14-.08,.02-.24-.02-.34-.11-.17-.15-.2-.13-.31,.27-.17,.58-.16,.65,.1,1.14,.31,.59,.3,.81-.08,.9-.18,.05-.47,.2-.64,.35-.41,.33-.51,.33-.67-.02-.14-.31-.32-.27-.32,.07,0,.19-.07,.23-.36,.19-.24-.02-.38-.09-.38-.2-.01-.09-.06-.26-.13-.38-.1-.18-.16-.19-.8-.03-.36,.09-.82,.19-.99,.23-.18,.05-.55,.28-.83,.55-.47,.43-.5,.44-.5,.2,0-.15-.09-.36-.19-.48-.19-.22-.2-.22-.49,.14-.26,.32-.32,.34-.6,.24-.18-.07-.51-.13-.75-.13-.41,0-.42-.01-.38-.33,.02-.18,.25-.57,.5-.88,.5-.61,.77-1.08,.77-1.35,0-.09,.06-.27,.14-.4,.11-.18,.1-.27-.11-.56-.14-.19-.25-.49-.25-.67,0-.33-.54-.98-.77-.91-.06,.02-.24-.15-.39-.36-.2-.28-.35-.39-.55-.36-.14,.01-.32-.02-.4-.09-.09-.07-.2-.06-.35,.06-.11,.09-.33,.17-.47,.17s-.39,.06-.55,.14c-.25,.11-.33,.09-.56-.13-.24-.23-.35-.25-.77-.18l-.49,.08,.26-.27c.19-.22,.24-.35,.18-.65-.06-.24-.14-.35-.26-.34-.1,.01-.32-.01-.49-.06-.25-.07-.39-.02-.76,.28-.69,.56-1.16,1.98-.79,2.36,.2,.2-.08,.36-.67,.36-.4,0-.48,.03-.46,.23,.01,.13,.09,.25,.19,.28,.13,.06,.07,.11-.19,.23-.2,.09-.38,.22-.38,.28,0,.06-.14,.11-.3,.11-.24,0-.27-.05-.22-.23,.06-.19,.02-.23-.28-.23-.19,0-.38,.07-.41,.16s-.28,.19-.56,.24c-.55,.08-1.14,.48-.88,.59,.23,.09-.41,.44-.98,.55-.26,.05-.5,.13-.55,.18-.03,.06-.23,.18-.44,.26-.2,.09-.43,.27-.51,.4-.08,.16-.24,.24-.44,.24-.34,0-.38,.09-.49,1.2-.01,.13-.16,.34-.32,.48l-.28,.26,.38,.32c.19,.18,.36,.35,.36,.39,0,.17-2.05,.39-2.95,.32-.6-.05-.79-.02-1,.15-.27,.22-.34,.63-.16,.98,.08,.14,.06,.35-.05,.67-.16,.44-.15,.49,.14,.92,.17,.26,.34,.47,.4,.47,.09,0,.43,.6,.43,.8,0,.2-.41,.13-.64-.13-.11-.14-.2-.35-.19-.48,.03-.36-.85-.99-1.26-.91-.26,.06-.31,.02-.27-.15,.02-.13-.08-.27-.27-.38-.31-.17-.33-.17-.68,.19-.34,.34-.35,.39-.18,.49,.11,.06,.24,.11,.28,.11,.1-.01,.28,.58,.2,.66-.03,.02-.2-.08-.38-.25-.3-.28-.33-.3-.57-.13-.24,.16-.25,.16-.19-.15,.02-.17,.08-.66,.11-1.09l.07-.76h-.31c-.26,0-.28-.02-.15-.18,.13-.16,.1-.22-.13-.39q-.28-.22-.36,.09c-.06,.19-.03,.36,.07,.48,.19,.22,.16,1.29-.03,1.53-.09,.1-.26,.18-.4,.18-.15,0-.48,.23-.79,.55-.48,.49-.52,.57-.38,.71,.1,.08,.18,.27,.18,.43,0,.15,.06,.48,.14,.72,.1,.36,.1,.48-.05,.64-.31,.36-.77,1.41-.77,1.75,0,.18-.06,.43-.13,.55-.22,.33-.03,.81,.28,.81,.16,0,.3,.06,.32,.14,.03,.09,.15,.08,.41-.05,.33-.17,.39-.17,.82,.05,.51,.26,.91,.69,.91,1.01,0,.41-.2,.31-.47-.24q-.27-.56-.85-.57c-.5,0-.61,.05-.94,.39-.36,.38-.38,.42-.31,1.02l.08,.63-.51,.56c-.28,.31-.52,.66-.52,.79,0,.16-.13,.28-.36,.38-.2,.08-.48,.18-.6,.23-.13,.06-.34,.14-.48,.17-.16,.05-.26,.16-.26,.3,0,.26-.25,.28-.46,.05-.08-.09-.24-.17-.35-.17-.28,0-.88-.36-1.09-.67-.25-.36-.1-.41,.31-.11,.3,.22,.39,.24,.57,.13,.13-.07,.3-.1,.4-.07,.33,.14,.69-.07,1.05-.57,.2-.3,.56-.6,.8-.72,.38-.17,.43-.26,.47-.63,.02-.28,.11-.47,.3-.59,.39-.25,.43-.68,.11-.99-.33-.31-.34-.63-.05-1.56,.13-.4,.23-.87,.23-1.04,0-.16,.13-.48,.27-.71,.16-.23,.34-.73,.41-1.12,.11-.63,.1-.74-.06-.92-.24-.26-.15-.61,.28-1.08,.17-.19,.35-.52,.4-.74s.14-.47,.19-.55c.08-.09,.08-.3-.02-.65-.13-.46-.18-.51-.47-.51-.17,0-.35-.06-.39-.11-.03-.07-.18-.11-.33-.11s-.35-.1-.47-.23c-.18-.2-.22-.2-.49-.02-.16,.1-.46,.56-.71,1.1-.46,.98-.87,1.42-1.56,1.67-.31,.11-.47,.26-.61,.6-.18,.39-.18,.48-.05,.58s.14,.18,0,.57c-.09,.24-.16,.51-.17,.6,0,.09-.16,.3-.35,.47-.35,.28-.35,.3-.18,.65,.1,.19,.27,.38,.38,.42,.14,.06,.17,.16,.11,.44-.05,.26,0,.48,.17,.75,.2,.35,.22,.4,.06,.49-.1,.06-.18,.23-.18,.38s-.06,.31-.13,.35c-.16,.09-.33-.16-.33-.48,0-.14-.25-.57-.57-.97-.31-.4-.66-.88-.76-1.06-.33-.55-1.87-2.17-2.03-2.14-.08,.01-.2-.06-.28-.15-.09-.11-.24-.15-.42-.1-.25,.07-.27,.06-.17-.15,.08-.14,.08-.28,.01-.39-.06-.08-.1-.27-.1-.41,0-.35-.24-.83-.41-.83-.08,0-.28,.06-.44,.14-.28,.13-.3,.17-.23,.65,.05,.27,.15,.57,.24,.66s.16,.22,.16,.27,.1,.1,.23,.1,.23,.05,.23,.11c0,.06-.05,.11-.11,.11-.06,0-.11,.28-.11,.63,0,.55-.02,.63-.23,.63-.13,0-.23,.08-.23,.17,0,.1-.1,.17-.28,.17-.16,0-.32,.08-.35,.17-.05,.09-.11,.17-.17,.17-.18,0-.11-.28,.13-.49,.13-.1,.23-.26,.23-.34,0-.22-.41-.57-.56-.49-.06,.05-.35,.11-.66,.17-.5,.1-.56,.08-.93-.24-.4-.35-.6-.38-1.67-.15-.41,.09-.52-.01-.42-.38,.05-.17,.15-.25,.34-.25,.26,0,.27-.03,.2-.36-.11-.51-.14-.55-.5-.55-.49,0-1.04,.23-1.04,.43-.01,.16-.03,.16-.18-.03-.1-.14-.32-.23-.59-.25-1.83-.1-2.53-.11-2.53-.02,0,.05-.08,.07-.17,.03-.09-.05-.35-.03-.57,0-.3,.06-.4,.14-.4,.3,0,.36-.36,.48-.89,.27-.41-.17-.46-.23-.52-.69-.11-.89-.1-.92,.34-1.01,.33-.06,.46-.02,.68,.19l.27,.26,.25-.24c.16-.16,.25-.44,.3-.81,.05-.48,0-.64-.22-.96-.64-.91-.96-1.23-1.25-1.23s-.3,.01-.24,.6c.05,.56,.02,.63-.25,.8-.16,.11-.3,.27-.3,.36,0,.1-.13,.23-.27,.3-.3,.14-.52,.54-.52,.91,0,.73-.91,1.29-1.25,.76-.09-.14-.28-.39-.41-.55-.24-.27-.27-.27-.77-.14-.44,.11-.58,.11-.84-.02-.23-.13-.38-.13-.54-.05-.11,.07-.46,.11-.76,.1h-.55s0,.43,0,.43c0,.25-.07,.5-.17,.58s-.16,.25-.15,.39c.02,.18-.02,.23-.19,.2-.13-.02-.27-.11-.34-.22-.06-.1-.23-.32-.36-.49-.17-.22-.31-.6-.4-1.18-.13-.83-.15-.87-.43-.87-.47,0-.8,.43-.8,1.06,0,.28,.05,.56,.11,.59,.2,.13,.13,.57-.13,.73-.23,.14-.28,.11-.65-.26-.38-.36-.4-.42-.26-.68,.13-.23,.13-.36-.02-.79-.16-.48-.16-.54,.03-.71,.11-.1,.24-.38,.28-.6,.09-.48,.46-.93,.76-.93,.4,0,.94-1.3,.68-1.63-.15-.18-.03-.88,.15-.88,.08,0,.18,.18,.22,.4,.1,.52,.79,2.01,1.02,2.21,.1,.08,.18,.32,.18,.54,0,.42,.38,.77,1.25,1.17,.67,.31,1.96,.23,2.37-.15,.74-.66,1.21-2.31,.79-2.78-.23-.26-.33-.82-.35-2.04-.01-.85-.05-1.06-.27-1.33-.14-.18-.25-.44-.25-.6,0-.15-.08-.3-.17-.33-.09-.05-.17-.18-.17-.32,0-.13-.15-.36-.33-.52s-.35-.44-.4-.66c-.06-.34,.07-.5,.22-.25,.03,.06,.17,.17,.3,.24,.23,.11,.23,.09,.15-.43-.09-.6-.18-.72-.66-.72-.28,0-.32-.02-.25-.31q.08-.3-.2-.1c-.2,.13-.35,.15-.49,.08-.11-.06-.47-.16-.79-.24-.57-.13-.61-.11-1.46,.31l-.87,.42v.61c0,.33-.08,.75-.17,.93-.16,.32-.23,.34-.79,.34s-.64,.03-1.02,.46c-.23,.25-.41,.54-.41,.65,0,.1-.18,.5-.4,.9-.28,.5-.46,.69-.57,.66-.09-.03-.39,.09-.65,.28s-.57,.35-.68,.35c-.16,0-.2,.09-.2,.4,0,.25-.07,.43-.17,.47-.09,.05-.17,.2-.17,.39,0,.41-.33,.68-.82,.68q-.4,0-.48,.59c-.03,.33-.07,.82-.07,1.09,0,.74-.18,.79-3.55,.83-1.56,.02-2.82,.07-2.82,.09,0,.03,.11,.17,.25,.32,.2,.22,.24,.38,.22,.85-.02,.49,.01,.61,.22,.77,.17,.13,.24,.27,.2,.47l-.05,.27-.14-.32c-.08-.19-.3-.39-.54-.49-.22-.09-.4-.2-.4-.26,0-.05-.14-.15-.31-.23-.28-.13-.34-.11-.55,.13-.13,.15-.38,.27-.57,.28-.82,.06-1.18,.18-1.47,.5-.17,.18-.36,.33-.46,.33s-.22,.15-.28,.34c-.08,.25-.18,.34-.39,.34-.33,0-.65,.33-.65,.65,0,.17-.14,.31-.46,.46-.38,.17-.46,.25-.42,.47,.03,.18-.08,.41-.33,.73-.46,.54-.47,.66-.15,1.23,.2,.36,.23,.49,.13,.79-.11,.31-.09,.35,.13,.42,.4,.11,.65,.4,.65,.72-.01,.32-.54,.97-.88,1.08-.15,.05-.31,.36-.54,1.07-.18,.55-.36,1.07-.42,1.18-.06,.13-.03,.24,.08,.33,.18,.15,.14,.84-.07,1.06-.17,.18-.63-.03-.82-.39-.24-.42-.64-.43-.84-.02-.07,.15-.28,.43-.48,.63-.58,.61-.64,.83-.35,1.23,.18,.26,.31,.33,.49,.28,.17-.05,.3,.01,.38,.16,.08,.11,.25,.23,.4,.25,.59,.08,.68,1.38,.11,1.63-.14,.06-.28,.19-.31,.3-.03,.11-.15,.23-.24,.26-.15,.06-.13,.15,.13,.56,.35,.61,.36,.96,.01,1.43-.3,.4-.28,.73,.05,.96,.1,.08,.23,.25,.27,.39s.31,.43,.59,.66c.49,.41,.51,.44,.49,.97-.02,.49,.01,.6,.39,1.01,.23,.26,.42,.54,.42,.63,0,.08,.08,.22,.17,.3s.17,.25,.17,.39,.06,.31,.13,.38c.23,.23,0,.6-.38,.6-.43,0-1.12,.61-1.13,1.02,0,.17-.13,.39-.34,.56l-.34,.27-.44-.43c-.35-.34-.52-.42-.94-.46-.55-.03-1.16,.24-1.29,.57-.07,.17,.35,.61,.59,.63,.06,0,.22,.08,.34,.18q.22,.17-.02,.1c-.13-.03-.47-.08-.75-.1s-.65-.13-.81-.24c-.48-.31-.69-.16-.6,.46l.08,.51h-.61c-.47,0-.69,.06-.93,.25l-.32,.25-.2-.25c-.23-.3-.58-.32-.8-.07-.24,.3-.23,1.24,.02,1.57,.11,.15,.22,.42,.22,.6s.1,.52,.23,.77c.17,.34,.23,.67,.23,1.4,0,.93,.11,1.39,.35,1.39,.3,0,1.35,1.49,1.35,1.9,0,.08,.19,.27,.43,.43,.48,.32,1.05,1.09,1.05,1.42,0,.11,.08,.26,.17,.34s.17,.31,.17,.51c0,.41,.24,.67,.71,.79,.17,.03,.4,.19,.5,.35s.26,.28,.34,.28c.09,0,.16,.06,.16,.14,0,.07,.08,.22,.18,.33,.15,.17,.16,.26,.05,.58-.13,.33-.11,.43,.1,.77,.13,.22,.24,.51,.24,.66,0,.14,.07,.28,.15,.32,.09,.03,.25,.47,.38,.98,.16,.69,.27,.93,.44,1,.32,.13,1.45,.06,1.74-.1,.27-.15,.33-.56,.26-2.14-.03-.68,.01-.9,.23-1.27,.14-.26,.3-.47,.35-.47,.05,0,.09-.06,.09-.14,0-.07,.08-.22,.17-.32,.1-.11,.2-.46,.25-.79,.06-.47,.02-.63-.14-.81-.32-.35-.15-.54,.6-.63,.57-.07,.74-.14,1.12-.5l.43-.43,.35,.2c.46,.28,2.11,.31,2.38,.03,.23-.23,.23-.24-.05-.58-.32-.4-.31-.66,.01-.47,.19,.13,.25,.11,.4-.08,.13-.17,.15-.44,.09-1.25-.07-.96-.1-1.05-.46-1.42-.35-.39-.36-.42-.25-.87,.11-.42,.1-.5-.13-.8l-.26-.33,.31-.25c.16-.15,.4-.26,.52-.26,.34,0,.67-.2,.67-.42,0-.28,.57-.83,.87-.83,.14,0,.35-.13,.48-.28s.31-.28,.4-.28c.15,0,.17,.1,.11,.54-.07,.63,.13,.9,.69,.97,.28,.03,.36-.03,.58-.42,.24-.41,.31-.46,.75-.49,.27-.02,.59-.13,.71-.23,.17-.15,.26-.16,.59-.03,.43,.15,.8,.09,1.12-.19,.28-.25,.58-.06,.65,.44,.06,.36,.08,.39,.52,.39,.47,0,.84,.19,.84,.44,0,.07,.18,.23,.42,.35,.35,.19,.44,.34,.68,1.08,.23,.69,.25,.89,.14,1.09-.07,.15-.1,.34-.07,.43,.09,.24,.49,.23,.65-.02,.1-.18,.13-.18,.31,.05,.11,.14,.26,.34,.33,.46,.14,.24,.89,.26,1.3,.05,.19-.1,.31-.08,.6,.1,.2,.13,.42,.33,.5,.46,.13,.19,.18,.2,.54,.1,.48-.15,.75,.01,.75,.43,0,.15,.18,.52,.41,.84,.34,.48,.47,.57,.77,.57,.2,0,.42-.06,.48-.11,.08-.08,.19,0,.36,.23,.23,.3,.33,.34,.83,.34s.63-.05,.97-.42c.44-.48,.46-.52,.22-.72-.09-.08-.17-.2-.17-.28s-.18-.36-.4-.61c-.44-.55-.42-.8,.07-.79,.46,.01,.69-.24,.71-.77,.02-.41,.06-.44,.38-.48,.23-.02,.41,.05,.56,.2,.26,.28,.54,.3,.8,0,.2-.23,.2-.24-.13-.6-.33-.35-.36-.51-.28-1.31,.02-.22,.4-.16,.84,.14,.33,.23,.58,.28,1.46,.33,.59,.03,1.3,.11,1.58,.19,.66,.17,.99,.17,1.32-.01,.2-.1,.34-.11,.56-.01,.16,.08,.59,.14,.94,.14s.72,.05,.8,.09c.18,.11,1.33-.1,1.53-.3,.18-.18,.46-.17,.73,.03,.11,.09,.35,.17,.51,.17,.17,0,.33,.07,.36,.16,.03,.08,.24,.18,.46,.23,.26,.05,.42,.15,.46,.31,.08,.3-.03,1.02-.18,1.21-.06,.08-.07,.27-.03,.42,.08,.33,.61,.49,.97,.31,.28-.16,.39-.01,.28,.38-.06,.25-.02,.31,.24,.41,.22,.08,.35,.08,.46,0,.09-.08,.25-.07,.5,.03l.36,.15-.27,.13c-.26,.13-.48,.66-.34,.87,.03,.06,.25,.08,.48,.06,.23-.03,.5,0,.6,.07,.15,.08,.3,.07,.6-.08,.23-.1,.48-.19,.56-.19s.24-.1,.35-.23c.14-.15,.35-.23,.63-.23,.25,0,.55-.09,.71-.23,.27-.2,.43-.2,.43,.02,0,.06-.13,.15-.28,.2-.4,.15-.4,.65,0,.8,.16,.06,.39,.27,.49,.48,.1,.19,.35,.54,.55,.76,.41,.48,.61,1.01,.61,1.61,0,.24,.08,.49,.17,.57s.17,.27,.17,.44c0,.16,.1,.47,.23,.67s.23,.44,.23,.54c0,.27,.35,1.24,.52,1.43,.23,.25,.72,.14,.87-.19,.17-.36,.55-.36,.55,0s.59,.87,.91,.79c.13-.03,.3,0,.39,.07,.18,.16,.81,.05,.99-.17,.07-.09,.22-.16,.32-.15,.31,.01,1.21,.73,1.24,.99,.02,.14,.28,.5,.59,.82s.57,.69,.59,.83c.02,.19,.17,.3,.66,.46,.57,.18,.66,.18,1.07,.02,.24-.1,.44-.17,.47-.15,.01,.02,.14,.25,.28,.51,.35,.64,.85,.75,1.41,.32,.26-.19,.51-.28,.83-.28,.28,0,.52-.07,.6-.18,.09-.09,.32-.24,.54-.33,.2-.09,.38-.24,.38-.33,0-.1,.09-.18,.22-.18,.11,0,.28-.09,.36-.19,.27-.33,1.16-.83,1.48-.83,.2,0,.32-.07,.36-.23,.03-.15,.16-.23,.34-.23,.15,0,.34-.08,.42-.17,.19-.23,.27-.22,.68,.13,.31,.26,.39,.28,.64,.17,.44-.19,.57-.16,1.18,.39,.68,.61,1.1,.73,2.79,.81l1.3,.07,.58-.5c.46-.4,.57-.56,.57-.84,0-.19-.08-.42-.17-.5s-.17-.28-.17-.46-.08-.38-.17-.46c-.2-.17-.11-.64,.18-.98,.13-.13,.22-.28,.22-.34,0-.07,.15-.26,.33-.43,.32-.31,.35-.31,.59-.14,.15,.1,.48,.18,.74,.18,.31,0,.54,.07,.66,.22,.16,.18,.26,.19,.64,.1,.9-.23,1.51,.1,2.07,1.15,.23,.41,.97,.8,1.54,.81,.65,0,1.56-.25,1.83-.5,.36-.32,1.73-.52,2.3-.33,.22,.08,.69,.14,1.05,.14,.59,.01,.68,.05,.9,.35,.38,.49,.77,.58,2.04,.46,2.09-.23,2.07-.22,2.56-.69,.25-.24,.64-.51,.85-.6,.56-.23,1.37-.96,1.37-1.22s.72-1.08,1.14-1.3c.26-.14,.35-.13,.76,.06l.46,.2,.58-.32c.54-.3,.65-.31,1.3-.23,1.13,.13,1.87-.2,2.2-.99,.09-.22,.28-.42,.46-.49,.39-.15,.39-.66-.01-1.25-.26-.39-.28-.5-.18-.76,.07-.18,.15-.66,.19-1.09,.03-.42,.11-.89,.18-1.02,.17-.39-.05-1.1-.47-1.5-.3-.28-.38-.32-.57-.19-.27,.17-.27,.15-.03-.64,.17-.51,.28-.68,.66-.92,.26-.16,.71-.49,1-.74,.56-.46,1.06-.61,2.19-.71,.32-.02,.9-.07,1.31-.11,.68-.06,.79-.03,1.23,.25,.26,.17,.48,.39,.48,.47,0,.09,.15,.22,.32,.3,.5,.22,1.25,.88,1.32,1.16,.05,.18,.18,.3,.41,.34,.34,.08,1.3,.92,1.63,1.43,.24,.39,.81,.51,1.37,.27,.22-.09,.43-.22,.48-.28,.09-.15,1.37-.15,1.92,.01,.31,.09,.47,.09,.56,0,.07-.07,.2-.13,.31-.13,.26,0,.8,.59,.8,.89,0,.17,.14,.32,.46,.48,.58,.3,1.02,.3,1.1,0,.03-.13,.11-.23,.19-.23,.07,0,.4-.18,.72-.4,.52-.35,.59-.43,.54-.72-.05-.23,.05-.49,.34-.99,.77-1.33,.84-1.35,1.48-.65,.38,.42,.43,.52,.32,.68-.26,.36-.27,.49-.07,.72,.25,.27,.52,.97,.55,1.37,0,.16,.07,.36,.14,.46,.16,.19,.28,.79,.32,1.41,.01,.25,.08,.56,.15,.69,.19,.33-.09,.73-.52,.73s-.92,.4-.92,.73c0,.14-.13,.38-.28,.52-.4,.38-.39,.85,.02,1.05,.17,.08,.42,.32,.55,.52,.13,.22,.44,.64,.72,.94,.52,.63,.59,.94,.31,1.62-.25,.6-.22,.87,.13,.99,.52,.2,.68-.1,.81-1.51,.05-.54,.08-.64,.2-.54,.19,.16,.4,.06,.4-.2,0-.14,.03-.15,.14-.05,.19,.19,.43,.17,.98-.09,.25-.13,.57-.23,.68-.23,.15,0,.32-.23,.59-.76,.2-.43,.47-.91,.58-1.07,.18-.26,.2-.56,.2-2.9,0-1.63,.05-2.82,.14-3.15,.15-.63,.01-1.84-.36-3.12-.31-1.05-.47-2.27-.44-3.54,.02-1.02,.01-1.06-.33-1.46-.19-.22-.43-.58-.52-.81-.2-.5-.68-1.16-1.53-2.12-.72-.82-.89-1.2-1.01-2.13-.11-.81-.1-.81,.89-.38,.49,.2,.75,.4,.87,.63,.1,.18,.55,.73,1,1.21,.89,.94,1.31,1.5,1.51,1.98,.08,.17,.38,.43,.71,.6,.41,.23,.67,.49,.97,.96,.22,.35,.55,.79,.74,.97,.19,.19,.35,.42,.35,.52,0,.09,.31,.48,.68,.85,.57,.57,.72,.66,.89,.56,.3-.19,.28-.41-.03-.89-.16-.24-.28-.55-.26-.67,.05-.3,.59-.47,1.02-.32,.56,.19,.61-.27,.08-.72-.39-.33-.66-.38-.89-.16-.11,.13-.18,.1-.32-.11-.1-.14-.27-.25-.39-.25s-.24-.06-.27-.11c-.03-.07-.22-.11-.39-.11-.19,0-.49-.15-.79-.41-.38-.32-.48-.48-.48-.76,0-.2-.13-.56-.28-.79-.32-.47-.4-1.23-.13-1.23,.24,0,.75-.46,.75-.66,0-.11-.18-.28-.43-.4-.64-.31-1.45-.8-1.66-1.02-.11-.11-.39-.31-.63-.43-.23-.13-.59-.35-.81-.51s-.54-.32-.69-.35c-.39-.07-1.04-.73-1.39-1.4-.19-.38-.35-.52-.63-.59-.2-.06-.44-.23-.55-.38-.1-.16-.28-.28-.4-.28s-.32-.16-.47-.34c-.24-.33-1.04-.68-1.18-.54-.05,.03-.03,.25,0,.48,.07,.32,.13,.4,.34,.4,.17,0,.38,.15,.57,.4l.31,.4h-.27c-.24,0-.28,.07-.35,.46-.06,.35-.14,.49-.36,.57-.39,.15-.88,.15-1.04-.01-.08-.08-.41-.11-.85-.08-.55,.03-.83,.13-1.21,.36l-.48,.33,.34,.63c.41,.76,.41,.8,.09,.84-.15,.02-.31,.15-.38,.3-.14,.31-.28,.33-.28,.03,0-.13-.16-.38-.35-.58-.28-.27-.39-.32-.51-.22-.18,.15-.22,.63-.05,.73,.07,.03,.11,.16,.11,.26-.01,.24-.49-.31-.75-.87-.1-.19-.22-.36-.26-.36s-.23,.16-.41,.34-.4,.34-.5,.34c-.09,0-.25,.08-.36,.18s-.26,.15-.32,.1c-.16-.09-.03-1.27,.16-1.59,.26-.43,.5-2.93,.3-3.18-.17-.2-.03-2.74,.17-3.15,.13-.26,.11-.32-.1-.54-.32-.32-.33-1.05-.03-1.38,.22-.23,.22-.26,.03-.65-.34-.72-.22-1.31,.48-2.19,.74-.93,1.31-1.5,1.51-1.5,.11,0,.36-.08,.56-.17,.32-.17,.32-.19,.16-.44-.18-.27-.13-.41,.17-.41,.26,0,.96-.74,.85-.91-.06-.09-.03-.13,.07-.09,.09,.03,.27-.05,.41-.16l.25-.23-.24-.32c-.3-.41-.18-.76,.32-.98,.22-.09,.39-.2,.39-.26,0-.09,.96-.69,1.09-.69,.02,0,.05,.14,.05,.3,0,.36,.24,.61,.61,.61,.24,0,.31-.08,.42-.49,.08-.26,.24-.56,.36-.66,.19-.16,.22-.27,.16-.71-.07-.5-.06-.52,.24-.56,.23-.02,.32-.1,.34-.32,.02-.16,.1-.34,.18-.4,.08-.07,.17-.25,.2-.43,.06-.27,.02-.31-.24-.31-.16,0-.42,.1-.58,.23-.31,.23-.57,.14-.57-.2,0-.1-.1-.28-.23-.42-.16-.17-.24-.47-.3-1.08-.05-.47-.15-.96-.23-1.08-.09-.13-.16-.4-.16-.63,0-.27-.07-.44-.23-.55-.27-.16-.32-.87-.08-1.15,.09-.1,.23-.42,.3-.71,.13-.44,.18-.52,.36-.48,.17,.05,.26-.02,.36-.3,.13-.34,.31-.48,.31-.24,0,.15,.9,1.14,1.04,1.14,.06,0,.1-.14,.11-.32,0-.28,.02-.27,.2,.15l.2,.46,.15-.47c.08-.26,.11-.71,.07-1.02-.17-1.45-.22-1.71-.31-1.8-.16-.17-.13-.3,.07-.3,.11,0,.17-.11,.17-.34,0-.27-.05-.34-.25-.34-.15,0-.48-.2-.73-.46-.42-.39-.47-.48-.4-.81,.08-.42,.35-.59,.35-.22,0,.3,1.01,1.33,1.4,1.42,.16,.05,.42,.28,.59,.55,.25,.39,.3,.55,.23,.88-.05,.22-.1,.55-.14,.72-.03,.19,0,.39,.11,.51,.18,.2,.99,2.44,.99,2.74,0,.1,.14,.39,.31,.63,.16,.25,.41,.91,.56,1.48,.22,.9,.23,1.06,.09,1.22-.1,.11-.14,.31-.09,.52,.03,.2,.01,.38-.06,.42s-.13,.2-.13,.36c0,.19,.07,.27,.22,.27,.24,0,.58,.46,.58,.77,0,.13,.08,.28,.17,.36s.17,.26,.17,.41c0,.17,.26,.56,.74,1.08,.41,.44,.74,.84,.74,.9,0,.19,1.17,.83,2.13,1.14,.55,.18,1.08,.42,1.17,.54,.26,.31,.72,.58,1.74,1.01,.51,.23,1.04,.5,1.17,.63,.13,.11,.32,.22,.43,.22,.1,0,.36,.13,.57,.28,.22,.16,.52,.28,.73,.28,.24,0,.42,.09,.58,.3l.24,.31v-.61c0-.34-.08-.92-.17-1.3s-.16-.82-.17-.98c0-.23-.2-.5-.77-1.04-.89-.83-.96-.97-.87-1.57,.06-.34,.13-.46,.32-.48,.36-.06,.33-.56-.05-.66-.87-.24-1.38-.79-1.54-1.63-.07-.41-.03-.48,.4-.88,.41-.38,.44-.46,.35-.72-.16-.42-.63-.69-1.02-.61-.22,.05-.38,.01-.47-.08-.07-.09-.24-.19-.39-.23-.27-.07-.75-.74-.75-1.05,0-.09,.08-.19,.18-.24,.09-.03,.23-.19,.28-.35,.09-.23,.06-.33-.14-.56-.25-.26-.82-.36-.94-.16-.18,.3-1.21-.34-1.21-.75,0-.18-.77-1.02-.84-.92-.27,.4-.5,.92-.46,1.06,.1,.26-.13,.2-.67-.17-.56-.38-.65-.52-.65-1.05,0-.28-.15-.51-.68-1.07-.63-.65-.67-.74-.6-1.09,.03-.23,.22-.5,.44-.69,.44-.38,.48-.49,.16-.59-.13-.05-.23-.17-.23-.3s-.06-.34-.13-.48q-.13-.24,.08-.07c.11,.09,.35,.23,.54,.31,.28,.13,.31,.11,.31-.17,0-.16-.1-.47-.24-.67-.19-.32-.22-.44-.11-.8,.08-.28,.08-.48,0-.57s-.02-.26,.17-.56c.16-.23,.32-.51,.35-.64,.09-.26,.52-.39,.83-.23,.18,.09,.27,.07,.48-.17l.27-.27-.35-.38c-.36-.38-.6-1.01-.6-1.61,0-.17-.13-.47-.28-.65-.15-.18-.31-.52-.34-.76-.05-.23-.17-.75-.3-1.15-.11-.4-.22-.99-.22-1.31-.01-.32-.09-.79-.18-1.04-.1-.25-.19-.57-.2-.72-.02-.14-.13-.33-.25-.42q-.2-.16,.05-.17c.18,0,.3-.1,.39-.34,.07-.22,.22-.36,.39-.41,.22-.06,.27-.15,.27-.44,0-.2-.08-.44-.18-.52s-.23-.27-.28-.41c-.08-.22-.14-.25-.31-.16-.11,.07-.32,.08-.46,.05-.15-.03-.38,.02-.55,.14-.16,.1-.32,.16-.35,.13-.05-.03-.15,0-.24,.08-.14,.1-.18,.1-.22-.01-.03-.09-.3-.14-.74-.14-.59,0-.72,.03-.91,.28-.13,.16-.32,.28-.46,.28q-.22,0,.02-.4c.22-.35,.23-.46,.11-.99-.09-.48-.24-.73-.71-1.22-.56-.57-.6-.6-1.02-.54-.4,.07-.44,.05-.55-.23-.07-.17-.1-.32-.09-.33,.11-.09,1-.13,1.15-.05,.13,.08,.24,.02,.42-.2,.2-.26,.24-.41,.18-.84-.09-.66,.03-.77,.77-.75,.43,.02,.58-.02,.68-.19,.41-.68,.63-.91,.98-1.02,.32-.1,.41-.2,.54-.61,.08-.3,.1-.59,.05-.74-.06-.14-.08-.38-.05-.54l.05-.28-.31,.31-.31,.31-.49-.54c-.35-.39-.49-.48-.5-.33,0,.16-.05,.18-.19,.1-.13-.08-.19-.26-.19-.55-.01-.38-.05-.43-.23-.41-.18,.03-.2,.01-.09-.11,.1-.14,.08-.22-.15-.43-.16-.15-.28-.39-.28-.54,0-.3-.03-.3-.48-.1Zm.36,11.22c0,.06-.1,.11-.24,.11-.13,0-.19-.06-.16-.11,.03-.07,.15-.11,.24-.11s.16,.05,.16,.11Zm-.23,.57c0,.06-.06,.11-.13,.11-.06,0-.08-.06-.05-.11,.03-.07,.09-.11,.13-.11,.02,0,.05,.05,.05,.11Zm-49.34,15c-.25,.06-.34-.03-.24-.2,.06-.09,.13-.08,.25,.02,.17,.14,.16,.15-.01,.18Zm2.73,5.56c-.06,.22-.02,.27,.16,.27,.35,0,.27,.19-.22,.5-.25,.16-.48,.39-.52,.51-.03,.11-.2,.24-.38,.26-.17,.03-.41,.1-.54,.16-.2,.08-.2,.07,.03-.23,.14-.18,.25-.39,.25-.48,0-.08,.16-.17,.34-.22,.24-.06,.34-.14,.34-.31,0-.3,.35-.89,.49-.81,.06,.03,.07,.18,.03,.33Zm-20.72,5.63c.09,.09,.16,.23,.16,.3s.07,.15,.15,.18c.09,.03,.08,.08-.06,.14-.1,.05-.31-.01-.48-.11-.24-.16-.3-.28-.3-.67,0-.6,.14-.76,.27-.33,.06,.17,.17,.4,.25,.5Zm66.4,16.52c.07,.08,.27,.33,.47,.56,.4,.48,.44,.79,.11,.79-.14,0-.3-.14-.4-.34-.11-.22-.26-.34-.41-.34-.2,0-.23-.02-.09-.18,.11-.14,.11-.23,.01-.4-.11-.17-.1-.22,.03-.22,.09,0,.22,.07,.27,.14Z"/>
          <path class="cls-3" d="M115.6,4.02c-.36,.24-.42,.34-.49,.88s-.03,.68,.22,1.14c.33,.6,.66,.74,.98,.42,.11-.11,.23-.25,.23-.31,.19-1.09,.15-2.07-.1-2.25-.26-.2-.35-.19-.83,.13Z"/>
          <path class="cls-3" d="M53.46,13.32c-.1,.2-.09,.34,.05,.6,.15,.27,.15,.35,.02,.42-.27,.16-.07,.66,.34,.87,.36,.17,.54,.43,.55,.82,.01,.15,.74,.49,.85,.39,.02-.02-.08-.15-.23-.27-.23-.18-.25-.24-.1-.33,.14-.09,.14-.15-.05-.34-.13-.14-.28-.24-.38-.24s-.13-.06-.09-.11c.03-.07,.32-.11,.61-.11,.63,0,1.06-.32,.82-.61-.1-.13-.05-.22,.3-.48q.42-.32,.15-.4c-.46-.13-.57-.11-.57,.07,0,.1-.1,.17-.27,.17-.16,0-.32,.06-.35,.11-.05,.07-.17,0-.31-.17s-.34-.28-.51-.28-.39-.08-.5-.18c-.19-.17-.22-.17-.33,.09Zm.8,.89c0,.06-.08,.11-.17,.11s-.17-.06-.17-.11c0-.07,.08-.11,.17-.11s.17,.05,.17,.11Z"/>
          <path class="cls-3" d="M58.38,14.2c.03,.22,0,.34-.09,.34-.08,0-.11-.09-.08-.23,.05-.18,0-.23-.24-.23-.31,0-.32,.07-.02,.44,.07,.08,.13,.24,.13,.34s.11,.19,.25,.22c.18,.02,.26-.03,.3-.23q.05-.26,.07-.01c.01,.23,.03,.24,.3,.13,.2-.09,.27-.19,.22-.31-.03-.1-.13-.32-.18-.5-.08-.23-.19-.31-.4-.31-.25,0-.28,.03-.24,.34Z"/>
          <path class="cls-3" d="M60.22,14.45c.03,.08,.1,.24,.14,.34,.05,.11,.17,.2,.28,.2,.16,0,.22-.08,.22-.34,0-.31-.03-.34-.35-.34-.24,0-.33,.05-.28,.14Z"/>
          <path class="cls-3" d="M57.33,14.6c0,.1-.1,.17-.27,.17-.36,0-.48,.19-.26,.43,.08,.1,.19,.28,.23,.39,.05,.13,.19,.2,.36,.2q.28,0,.11-.34c-.1-.19-.23-.32-.28-.28-.07,.03-.08,0-.05-.09,.09-.26,.5-.09,.5,.2,0,.26,.36,.68,.49,.55,.15-.14,.08-.46-.15-.66-.13-.11-.23-.33-.23-.48,0-.18-.07-.26-.23-.26-.13,0-.23,.08-.23,.17Z"/>
          <path class="cls-3" d="M55.53,15.3s.03,.17-.03,.3c-.15,.28,.05,.55,.42,.55,.19,0,.25-.05,.2-.17-.06-.13,.01-.17,.24-.17,.25,0,.3-.05,.26-.26s-.11-.25-.6-.28c-.31-.02-.52,0-.49,.05Z"/>
          <path class="cls-3" d="M58.93,15.5c-.07,.08-.09,.25-.05,.36q.07,.2-.16,.01c-.23-.2-.24-.19-.54,.17-.22,.27-.3,.32-.3,.17,0-.13-.09-.19-.28-.19-.16,0-.28,.05-.28,.1s-.16,.09-.35,.08c-.36-.01-.4,.03-.47,.55-.05,.3,.71,.48,1.08,.27,.3-.16,.75-.19,.83-.07,.11,.18,.49,.09,.83-.2,.25-.22,.35-.25,.35-.13,0,.18,.23,.31,.55,.31,.1,0,.33-.14,.5-.31,.51-.49,.38-1.15-.17-.8-.36,.23-.8,.32-.99,.19-.11-.08-.13-.11-.02-.11,.07,0,.14-.13,.14-.28,0-.23-.06-.28-.27-.28-.15,0-.33,.07-.4,.16Z"/>
          <path class="cls-3" d="M96.38,15.56c-.16,.3,.01,.6,.28,.5,.2-.08,.2-.27,0-.55-.15-.2-.16-.2-.28,.05Z"/>
          <path class="cls-3" d="M71.49,17.24c-.03,.13-.24,.31-.46,.43-.32,.17-.39,.27-.39,.58,0,.2-.06,.51-.14,.67-.1,.23-.09,.35,.02,.6,.09,.17,.18,.35,.22,.41,.02,.06-.11,.07-.33,.03-.34-.07-.36-.06-.3,.18,.03,.14,.07,.34,.07,.44,0,.26,.67,.59,.87,.42,.1-.08,.16-.09,.16-.01,0,.06-.08,.17-.17,.25-.19,.16-.03,.46,.24,.46,.09,0,.22,.13,.27,.28,.06,.15,.26,.35,.46,.46,.18,.09,.34,.23,.34,.3,0,.09,.05,.09,.16,0,.14-.11,.23-.1,.46,.05,.35,.24,.76,.16,1.09-.19,.23-.24,.23-.25,0-.63-.13-.22-.17-.4-.1-.43,.06-.05,.09-.35,.07-.71-.03-.56-.08-.65-.34-.8-.17-.09-.36-.13-.42-.09-.07,.03-.11-.03-.11-.16,0-.14-.07-.24-.16-.24s-.19-.08-.23-.18c-.11-.28-.08-.84,.05-.84,.22,0,.11-.26-.27-.68-.2-.23-.4-.48-.42-.54-.02-.07-.16-.16-.31-.2-.2-.06-.28-.03-.32,.14Zm0,3.16c-.05,.09-.09,.17-.11,.17s-.05-.08-.05-.17,.05-.17,.11-.17c.06,0,.08,.08,.05,.17Z"/>
          <path class="cls-3" d="M57.57,17.31c-.24,.24-.15,.54,.16,.54,.16,0,.28-.05,.28-.1s.03-.18,.07-.27c.07-.2-.34-.33-.51-.16Z"/>
          <path class="cls-3" d="M69.74,17.45c-.11,.15-.1,.22,.06,.4,.19,.22,.22,.22,.42,.05,.3-.28,.26-.61-.07-.61-.15,0-.33,.08-.41,.17Z"/>
          <path class="cls-3" d="M99.3,17.62c-.3,.25-.42,.3-.51,.2-.1-.1-.23-.05-.52,.24-.34,.33-.42,.35-.64,.24-.23-.13-.24-.11-.17,.14,.23,.74,.83,1.16,1.2,.83,.1-.09,.32-.17,.48-.17,.51,0,1.04-.46,1.15-1,.17-.85-.3-1.08-.98-.48Z"/>
          <path class="cls-3" d="M65.62,17.74c-.26,.15-.26,.3,.01,.44,.17,.08,.28,.06,.49-.1,.14-.13,.24-.24,.2-.27-.15-.14-.54-.17-.71-.07Z"/>
          <path class="cls-3" d="M96.49,18.95c-.22,.03-.49,.14-.59,.23-.16,.14-.24,.15-.36,.05s-.25-.1-.58,.03c-.42,.18-.43,.22-.2,.81,.05,.14-.87,.16-1.08,.02-.09-.07-.16,.01-.2,.26-.05,.19-.13,.38-.17,.41-.14,.08-.13,.58,.01,.67,.07,.03,.11,.16,.11,.27s.1,.24,.22,.27c.13,.02,.24,.17,.26,.31,.03,.28,.16,.36,.83,.57,.71,.2,1.22,.11,1.31-.23,.14-.5,.67-1.25,.84-1.18,.23,.09,.66-.52,.6-.84-.02-.14,0-.28,.05-.32,.16-.09,.11-.47-.07-.66-.09-.09-.17-.3-.17-.46,0-.31,.01-.31-.8-.22Z"/>
          <path class="cls-3" d="M63.99,20.51c-.22,.16-.22,.17,.06,.4,.16,.13,.32,.23,.35,.24,.16,0,.19-.49,.05-.64q-.19-.19-.46,0Z"/>
          <path class="cls-3" d="M74.71,21.24c-.1,.11-.22,.5-.26,.85-.05,.36-.13,.68-.17,.72-.06,.03-.1,.25-.1,.48s-.05,.61-.1,.84c-.08,.36-.07,.43,.1,.49,.13,.03,.39-.06,.64-.23,.24-.16,.56-.32,.72-.36,.48-.1,1.02-.49,1.21-.82,.15-.28,.14-.36-.08-.79-.13-.26-.27-.44-.33-.41-.07,.03-.22-.07-.35-.24-.13-.16-.3-.27-.38-.24-.09,.03-.18-.06-.22-.23-.09-.33-.41-.36-.67-.07Z"/>
          <path class="cls-3" d="M92.79,22.06c-.03,.06-.01,.19,.05,.31s.14,.3,.17,.4c.03,.11,.17,.2,.3,.2,.26,0,.32-.42,.11-.81-.13-.23-.51-.3-.63-.1Z"/>
          <path class="cls-3" d="M98.24,22.87c-.38,.4-.48,.41-.52,.08-.03-.3-.36-.4-.6-.2s-.22,.49,.07,.84c.23,.28,.25,.3,.39,.11,.13-.18,.15-.18,.3,.08,.08,.15,.14,.35,.13,.46-.02,.1,.05,.24,.14,.32,.14,.11,.18,.09,.24-.09,.05-.14,.27-.3,.6-.41,.3-.09,.66-.27,.81-.39,.25-.19,.26-.22,.08-.56-.14-.26-.27-.36-.47-.36-.15,0-.4-.05-.55-.1-.24-.09-.33-.06-.6,.23Z"/>
          <path class="cls-3" d="M76.95,23.38c.03,.2,.48,.49,.77,.5,.26,0,.35-.18,.2-.46-.16-.3-1.02-.34-.98-.05Z"/>
          <path class="cls-3" d="M94.72,24.8c-.05,.07-.06,.13-.05,.15,.56,.36,.69,.42,.84,.3,.26-.22,.01-.57-.4-.57-.18,0-.36,.06-.4,.13Z"/>
          <path class="cls-3" d="M57.78,25.34c-.28,.15-.6,.35-.71,.44-.25,.22-1.4,.13-1.68-.14-.25-.22-.5-.22-.69,.01-.11,.14-.28,.17-.64,.13-.55-.06-1.16,.11-1.5,.42-.16,.15-.32,.18-.52,.14-.2-.06-.28-.02-.28,.1,0,.2-.14,.22-.31,.05-.19-.19-.38-.01-.35,.33,.03,.42-.09,.59-.44,.59-.17,0-.26,.03-.23,.07,.13,.13-.81,.72-1.35,.87-.59,.16-.75,.39-.44,.61,.11,.09,.15,.16,.08,.16-.08,0-.14,.07-.14,.16,0,.11-.13,.14-.51,.09-.49-.05-.51-.03-.51,.24,0,.22-.05,.28-.16,.24-.09-.03-.3,.02-.47,.14-.27,.18-.28,.22-.13,.33,.16,.13,.16,.16-.03,.33-.11,.1-.47,.22-.79,.26-.61,.07-.82,.25-.97,.82-.06,.22,.01,.36,.34,.66,.5,.48,.67,1.07,.36,1.33-.13,.1-.22,.27-.22,.39,0,.23,.79,1.05,1,1.05,.08,0,.14,.05,.14,.1s.11,.13,.26,.15c.16,.02,.26,.13,.28,.28,.03,.25,.05,.25,.43,.07,.42-.2,.47-.39,.23-.83-.11-.18-.13-.36-.06-.55,.06-.16,.06-.34,0-.46-.14-.26-.02-1.24,.17-1.4,.09-.07,.16-.19,.16-.28,0-.08,.1-.17,.22-.22,.14-.03,.24-.19,.26-.38,.02-.25,.1-.32,.38-.34,.24-.02,.41-.15,.6-.42,.14-.22,.32-.4,.41-.4,.08,0,.22-.08,.3-.17,.1-.13,.18-.15,.27-.06,.18,.18,.3,.14,.3-.11,0-.13,.08-.23,.17-.23s.17-.05,.17-.11c0-.06,.2-.25,.46-.41,.25-.17,.46-.38,.46-.47,0-.1,.07-.15,.17-.1,.09,.03,.17,.01,.17-.05,0-.07,.18-.11,.41-.11,.52,0,.85-.18,.76-.41s.15-.39,.6-.39c.19,0,.42-.08,.5-.17,.1-.13,.38-.17,.98-.17,.46,0,.85-.05,.9-.11s.16-.06,.33,.01c.2,.09,.34,.08,.61-.06,.19-.1,.48-.18,.61-.18,.16,0,.44-.17,.69-.43,.32-.33,.42-.52,.42-.82-.01-.81-.61-1.05-1.48-.59Z"/>
          <path class="cls-3" d="M78.11,25.21c-.09,.24,.09,.43,.32,.34,.25-.09,.23-.27-.03-.41-.17-.09-.23-.08-.28,.07Z"/>
          <path class="cls-3" d="M69.24,26.45c-.05,.1-.01,.26,.07,.35,.13,.15,.17,.14,.34-.08,.11-.14,.2-.3,.2-.35,0-.18-.55-.1-.61,.08Z"/>
          <path class="cls-3" d="M72.75,26.5c-.11,.13-.28,.23-.39,.23-.14,0-.13,.06,.07,.25,.25,.24,.26,.24,.49,.03s.32-.74,.14-.74c-.06,0-.19,.1-.31,.23Z"/>
          <path class="cls-3" d="M133.45,26.98c-.25,.14-.26,1.02-.02,1.23,.09,.08,.17,.24,.17,.35,0,.13,.15,.28,.35,.4l.36,.18-.08-.43c-.05-.25-.09-.72-.1-1.06-.02-.5-.07-.63-.26-.69-.13-.06-.32-.05-.42,.02Z"/>
          <path class="cls-3" d="M142.98,28.1c-.34,.13-.44,.32-.25,.51,.14,.14,.2,.11,.48-.17,.33-.35,.23-.51-.23-.34Z"/>
          <path class="cls-3" d="M65.65,29.05c-.19,.23,.14,.46,.52,.35l.32-.08-.28-.22c-.34-.25-.39-.26-.56-.06Z"/>
          <path class="cls-3" d="M141,29.23c-.08,.05-.1,.18-.06,.33,.06,.2,.16,.24,.67,.24,.46,0,.65-.06,.81-.23,.11-.13,.17-.26,.14-.31-.11-.1-1.39-.14-1.56-.03Z"/>
          <path class="cls-3" d="M65.25,30.29c-.24,.18-.16,.65,.11,.65,.23,0,.33-.3,.2-.58-.09-.19-.13-.2-.32-.07Z"/>
          <path class="cls-3" d="M82.39,30.63c-.27,.28-.33,.65-.11,.65,.07,0,.22,.08,.32,.17,.18,.16,.23,.15,.56-.11,.25-.22,.35-.41,.35-.64,0-.31-.03-.33-.43-.33-.31,0-.51,.08-.68,.26Z"/>
          <path class="cls-3" d="M66.98,32.18c-.17,.17-.14,.4,.09,.68,.08,.09,.39-.25,.39-.44,0-.33-.25-.46-.48-.24Z"/>
          <path class="cls-3" d="M57.9,32.85c0,.06-.14,.16-.3,.24-.17,.08-.27,.19-.24,.28,.03,.08,.01,.2-.05,.26-.2,.2,.23,.52,.61,.44,.18-.03,.41-.07,.49-.07,.24,0,.19-.3-.13-.8-.28-.44-.4-.55-.4-.36Z"/>
          <path class="cls-3" d="M65.26,33.07c-.15,.14-.08,.38,.11,.38,.1,0,.28,.08,.4,.19,.19,.17,.2,.17,.2-.16,0-.22-.07-.38-.18-.42-.23-.09-.44-.09-.54,.01Z"/>
          <path class="cls-3" d="M60.74,33.73c-.18,.22,.07,.58,.27,.41,.08-.07,.25-.09,.39-.05,.28,.07,.31,.01,.14-.32-.15-.26-.59-.28-.8-.05Z"/>
          <path class="cls-3" d="M40.21,34.98c-.56,.72-.06,1.29,.98,1.13,.6-.1,.73-.42,.41-1.06-.2-.42-.27-.47-.66-.47-.35,0-.48,.07-.73,.4Z"/>
          <path class="cls-3" d="M27.09,34.98c-.05,.09-.01,.25,.07,.34,.13,.16,.17,.16,.36-.02,.2-.18,.2-.2,.02-.34-.26-.19-.38-.18-.46,.02Z"/>
          <path class="cls-3" d="M62.61,35.43c-.07,.27,.1,.63,.31,.63,.06,0,.18-.13,.28-.28,.15-.23,.16-.32,.05-.46-.23-.27-.56-.2-.64,.11Z"/>
          <path class="cls-3" d="M.91,35.76c-.13,.1-.34,.14-.54,.1-.3-.06-.31-.05-.2,.2,.41,1.06,.8,1.73,1.34,2.36l.63,.71,.47-.25c.64-.35,.79-.76,.44-1.23-.16-.2-.25-.5-.25-.77,0-.35-.06-.49-.27-.63-.24-.16-.28-.16-.44,0-.17,.17-.19,.17-.26-.03-.11-.3-.4-.61-.56-.61-.07,0-.23,.07-.35,.16Z"/>
          <path class="cls-3" d="M142.43,44.43c-.17,.26-.17,.31,0,.57,.13,.19,.17,.42,.13,.67-.08,.49,.25,.88,.55,.64,.09-.08,.17-.25,.17-.39s.06-.31,.13-.38c.09-.09,.06-.25-.11-.56-.13-.25-.25-.54-.28-.65-.09-.28-.35-.24-.57,.09Z"/>
          <path class="cls-3" d="M143.39,47.38c0,.15,.08,.33,.18,.41,.14,.13,.2,.11,.36-.05,.18-.18,.18-.2-.09-.41-.38-.3-.46-.28-.46,.05Z"/>
          <path class="cls-3" d="M145.09,53.65c0,.48,.02,.51,.3,.51,.23,0,.28-.05,.23-.18-.03-.1-.07-.33-.07-.51,0-.25-.06-.33-.23-.33-.19,0-.23,.08-.23,.51Z"/>
          <path class="cls-3" d="M121.08,54.26c0,.07-.07,.13-.16,.13-.24,0-.39,.24-.43,.68-.03,.34,0,.4,.22,.4,.14,0,.28,.05,.33,.09,.14,.14,.5-.28,.5-.57,0-.16-.1-.41-.23-.57s-.23-.24-.23-.16Z"/>
          <path class="cls-3" d="M144.96,56.4c-.11,.2-.17,.54-.16,.89,.02,.52,.06,.57,.31,.57s.27-.05,.33-.89c.05-.74,.03-.88-.11-.88-.1,0-.26,.14-.36,.31Z"/>
          <path class="cls-3" d="M144.48,59.04c-.1,.16,.05,.47,.22,.47s.32-.31,.22-.47c-.03-.06-.13-.1-.22-.1s-.18,.05-.22,.1Z"/>
          <path class="cls-3" d="M144,59.98c-.14,.22-.06,1.73,.1,1.83,.25,.16,.36,.02,.39-.49,.02-.27,.07-.65,.1-.83,.06-.25,.02-.36-.13-.49-.26-.18-.36-.18-.47-.02Z"/>
          <path class="cls-3" d="M143.58,62.89c-.18,.05-.19,.13-.14,.52,.15,.88,.5,.85,.55-.03,.02-.5-.05-.58-.41-.49Z"/>
          <path class="cls-3" d="M144.8,63.28c-.11,.19,.26,.52,.42,.36,.08-.08,.1-.22,.07-.31-.08-.2-.38-.24-.49-.06Z"/>
        </g>
        <g class="cls-1">
          <g>
            <circle class="cls-7" cx="73.08" cy="50.01" r="17.66"/>
            <path class="cls-11" d="M73.08,68.25c-10.06,0-18.24-8.18-18.24-18.24s8.18-18.24,18.24-18.24,18.24,8.18,18.24,18.24-8.18,18.24-18.24,18.24Zm0-35.32c-9.42,0-17.08,7.66-17.08,17.08s7.66,17.08,17.08,17.08,17.08-7.66,17.08-17.08-7.66-17.08-17.08-17.08Z"/>
          </g>
          <g>
            <path class="cls-11" d="M81.05,48.33l13.13,2.1c.17,.03,.16,.28-.01,.29l-13.27,.86c-3.45,.22-6.28,2.8-6.83,6.22l-2.1,13.13c-.03,.17-.28,.16-.29-.01l-.86-13.27c-.22-3.45-2.8-6.28-6.22-6.83l-13.13-2.1c-.17-.03-.16-.28,.01-.29l13.27-.86c3.45-.22,6.28-2.8,6.83-6.22l2.1-13.13c.03-.17,.28-.16,.29,.01l.86,13.27c.22,3.45,2.8,6.28,6.22,6.83Z"/>
            <path class="cls-11" d="M71.82,71.14s0,0-.01,0c-.12,0-.21-.09-.22-.22l-.86-13.27c-.22-3.43-2.75-6.21-6.14-6.75l-13.13-2.1c-.12-.02-.2-.12-.2-.24,0-.12,.1-.21,.22-.22l13.27-.86c3.43-.22,6.21-2.75,6.75-6.14l2.1-13.13c.02-.12,.11-.2,.24-.2,.12,0,.21,.09,.22,.22l.86,13.27c.22,3.43,2.75,6.21,6.14,6.75l13.13,2.1c.12,.02,.2,.12,.2,.24,0,.12-.09,.21-.22,.22l-13.27,.86c-3.43,.22-6.21,2.75-6.75,6.14l-2.1,13.13c-.02,.12-.11,.2-.23,.2Zm2.01-42.95s-.05,0-.06,.05l-2.1,13.13c-.56,3.47-3.4,6.06-6.91,6.29l-13.27,.86s-.05,.04-.05,.06c0,.02,0,.05,.05,.06l13.13,2.1c3.47,.56,6.06,3.4,6.29,6.91l.86,13.27s.04,.05,.06,.05c.02,0,.05,0,.06-.05l2.1-13.13c.56-3.47,3.4-6.06,6.91-6.29l13.27-.86s.05-.04,.05-.06c0-.02,0-.05-.05-.06l-13.13-2.1c-3.47-.56-6.06-3.4-6.29-6.91l-.86-13.27s-.04-.05-.06-.05c0,0,0,0,0,0Z"/>
          </g>
          <circle class="cls-9" cx="72.82" cy="49.57" r="3.15"/>
          <g class="cls-12">
            <path class="cls-11" d="M66.84,40.71l-9.58-7.11,7.36,9.09c1.62,1.17,3.46-.49,2.23-1.98Z"/>
            <path class="cls-11" d="M79.11,57.75l9.58,7.11-7.36-9.09c-1.62-1.17-3.46,.49-2.23,1.98Z"/>
            <path class="cls-11" d="M65.99,57.75l-9.58,7.11,7.36-9.09c1.62-1.17,3.46,.49,2.23,1.98Z"/>
            <path class="cls-11" d="M80.85,40.71l9.58-7.11-7.36,9.09c-1.62,1.17-3.46-.49-2.23-1.98Z"/>
          </g>
        </g>
      </g>
      <text class="cls-4" transform="translate(1.59 95.22)"><tspan x="0" y="0">Пу</tspan><tspan class="cls-2" x="15.54" y="0">т</tspan><tspan class="cls-10" x="20.77" y="0">еше</tspan><tspan class="cls-6" x="45.3" y="0">с</tspan><tspan x="51.5" y="0">твия по </tspan><tspan class="cls-8" x="99.17" y="0">Р</tspan><tspan x="106.98" y="0">о</tspan><tspan class="cls-5" x="114.14" y="0">с</tspan><tspan x="120.4" y="0">сии</tspan></text>
    </g>
  </g>
</svg>